<?xml version="1.0" encoding="iso-8859-1"?>
<!-- Uploaded to: SVG Repo, www.svgrepo.com, Generator: SVG Repo Mixer Tools -->
<svg version="1.1" id="Layer_1" xmlns="http://www.w3.org/2000/svg" xmlns:xlink="http://www.w3.org/1999/xlink" 
	 viewBox="0 0 512 512" xml:space="preserve">
<g>
	<rect x="281.029" y="175.538" style="fill:#3CC4DC;" width="34.953" height="282.569"/>
	<path style="fill:#3CC4DC;" d="M421.823,93.97c0,54.165-55.212,98.074-123.321,98.074s-123.321-43.91-123.321-98.074H421.823z"/>
	<path style="fill:#3CC4DC;" d="M298.502,448.395L298.502,448.395c-24.008,0-43.47,19.462-43.47,43.47v9.936h86.941v-9.936
		C341.972,467.857,322.51,448.395,298.502,448.395z"/>
</g>
<ellipse style="fill:#FF422D;" cx="273.145" cy="34.449" rx="38.578" ry="24.25"/>
<path d="M392.051,171.301c25.775-20.498,39.971-47.962,39.971-77.33c0-5.633-4.566-10.199-10.199-10.199H175.182
	c-5.633,0-10.199,4.566-10.199,10.199c0,29.369,14.195,56.832,39.971,77.33c18.389,14.625,41.152,24.426,65.871,28.622v110.522
	c-11.448-0.629-30.078-1.612-38.205-1.812c-74.154-1.824-132.242-59.802-132.242-131.994c0-47.219,25.487-91.145,66.514-114.634
	c4.887-2.799,6.583-9.03,3.783-13.918c-2.798-4.888-9.03-6.583-13.918-3.784c-47.358,27.113-76.778,77.821-76.778,132.336
	c0,40.505,15.867,78.529,44.678,107.065c28.492,28.222,66.656,44.318,107.461,45.321c8.04,0.198,27.489,1.232,38.707,1.85v77.613
	c-12.398,1.017-25.291,1.547-38.457,1.547c-5.633,0-10.199,4.566-10.199,10.199s4.566,10.199,10.199,10.199
	c12.9,0,25.823-0.502,38.457-1.496V445.9c-15.563,9.407-25.992,26.489-25.992,45.964v9.937c0,5.633,4.566,10.199,10.199,10.199
	h86.941c5.633,0,10.199-4.566,10.199-10.199v-9.936c0-19.474-10.429-36.557-25.992-45.964v-25.096
	c42.996-9.815,74.009-27.042,74.009-51.273c0-22.21-26.217-40.28-74.008-51.218v-118.39
	C350.9,195.727,373.661,185.925,392.051,171.301z M186.139,104.17h224.727c-6.524,43.668-54.427,77.675-112.364,77.675
	S192.663,147.837,186.139,104.17z M265.232,491.602c0.142-18.226,15.011-33.008,33.27-33.008c18.259,0,33.129,14.782,33.27,33.008
	H265.232z M305.781,438.702c-2.383-0.324-4.809-0.507-7.279-0.507s-4.897,0.183-7.279,0.507v-11.838
	c4.936-0.619,9.795-1.318,14.558-2.096V438.702z M379.79,369.531c0,6.259-10.238,16.862-39.09,26.144
	c-4.595,1.478-9.461,2.837-14.52,4.1v-60.489C365.259,348.982,379.79,362.356,379.79,369.531z M305.781,404.073
	c-4.732,0.829-9.583,1.582-14.558,2.243V202.08c2.416,0.104,4.843,0.162,7.279,0.162c2.437,0,4.863-0.058,7.279-0.162V404.073z"/>
<path d="M273.15,68.898c27.352,0,48.778-15.132,48.778-34.449S300.502,0,273.15,0s-48.778,15.132-48.778,34.449
	S245.799,68.898,273.15,68.898z M273.15,20.398c17.324,0,28.379,8.322,28.379,14.05s-11.055,14.05-28.379,14.05
	s-28.379-8.322-28.379-14.05S255.827,20.398,273.15,20.398z"/>
<path d="M192.683,50.586c0.967,0,1.951-0.139,2.925-0.429c3.026-0.905,6.122-1.708,9.203-2.391
	c5.499-1.217,8.971-6.662,7.754-12.163c-1.217-5.499-6.66-8.972-12.163-7.754c-3.561,0.787-7.139,1.718-10.636,2.763
	c-5.397,1.614-8.464,7.295-6.851,12.693C184.237,47.727,188.292,50.586,192.683,50.586z"/>
</svg>